<svg width="1440" height="143" viewBox="0 0 1440 143" fill="none" xmlns="http://www.w3.org/2000/svg">
<path d="M-17.5609 71.2C-17.5609 57.6 -14.4276 45.4 -8.16094 34.6C-1.76094 23.8 6.83906 15.4 17.6391 9.39999C28.5724 3.26666 40.5057 0.199989 53.4391 0.199989C68.2391 0.199989 81.3724 3.86666 92.8391 11.2C104.439 18.4 112.839 28.6667 118.039 42H90.6391C87.0391 34.6667 82.0391 29.2 75.6391 25.6C69.2391 22 61.8391 20.2 53.4391 20.2C44.2391 20.2 36.0391 22.2667 28.8391 26.4C21.6391 30.5333 15.9724 36.4667 11.8391 44.2C7.83907 51.9333 5.83907 60.9333 5.83907 71.2C5.83907 81.4667 7.83907 90.4667 11.8391 98.2C15.9724 105.933 21.6391 111.933 28.8391 116.2C36.0391 120.333 44.2391 122.4 53.4391 122.4C61.8391 122.4 69.2391 120.6 75.6391 117C82.0391 113.4 87.0391 107.933 90.6391 100.6H118.039C112.839 113.933 104.439 124.2 92.8391 131.4C81.3724 138.6 68.2391 142.2 53.4391 142.2C40.3724 142.2 28.4391 139.2 17.6391 133.2C6.83906 127.067 -1.76094 118.6 -8.16094 107.8C-14.4276 97 -17.5609 84.8 -17.5609 71.2ZM210.127 142.4C197.193 142.4 185.26 139.4 174.327 133.4C163.527 127.267 154.927 118.8 148.527 108C142.26 97.0667 139.127 84.8 139.127 71.2C139.127 57.6 142.26 45.4 148.527 34.6C154.927 23.8 163.527 15.4 174.327 9.39999C185.26 3.26666 197.193 0.199989 210.127 0.199989C223.193 0.199989 235.127 3.26666 245.927 9.39999C256.86 15.4 265.46 23.8 271.727 34.6C277.993 45.4 281.127 57.6 281.127 71.2C281.127 84.8 277.993 97.0667 271.727 108C265.46 118.8 256.86 127.267 245.927 133.4C235.127 139.4 223.193 142.4 210.127 142.4ZM210.127 122.6C219.327 122.6 227.527 120.533 234.727 116.4C241.927 112.133 247.527 106.133 251.527 98.4C255.66 90.5333 257.727 81.4667 257.727 71.2C257.727 60.9333 255.66 51.9333 251.527 44.2C247.527 36.4667 241.927 30.5333 234.727 26.4C227.527 22.2667 219.327 20.2 210.127 20.2C200.927 20.2 192.727 22.2667 185.527 26.4C178.327 30.5333 172.66 36.4667 168.527 44.2C164.527 51.9333 162.527 60.9333 162.527 71.2C162.527 81.4667 164.527 90.5333 168.527 98.4C172.66 106.133 178.327 112.133 185.527 116.4C192.727 120.533 200.927 122.6 210.127 122.6ZM451.963 1.99999V141H429.163V45.8L386.763 141H370.963L328.363 45.8V141H305.563V1.99999H330.163L378.963 111L427.563 1.99999H451.963ZM506.73 1.99999V141H483.93V1.99999H506.73ZM652.864 141H630.064L561.464 37.2V141H538.664V1.79999H561.464L630.064 105.4V1.79999H652.864V141ZM785.405 42C781.805 35.0667 776.805 29.8667 770.405 26.4C764.005 22.8 756.605 21 748.205 21C739.005 21 730.805 23.0667 723.605 27.2C716.405 31.3333 710.738 37.2 706.605 44.8C702.605 52.4 700.605 61.2 700.605 71.2C700.605 81.2 702.605 90.0667 706.605 97.8C710.738 105.4 716.405 111.267 723.605 115.4C730.805 119.533 739.005 121.6 748.205 121.6C760.605 121.6 770.671 118.133 778.405 111.2C786.138 104.267 790.871 94.8667 792.605 83H740.405V64.8H817.005V82.6C815.538 93.4 811.671 103.333 805.405 112.4C799.271 121.467 791.205 128.733 781.205 134.2C771.338 139.533 760.338 142.2 748.205 142.2C735.138 142.2 723.205 139.2 712.405 133.2C701.605 127.067 693.005 118.6 686.605 107.8C680.338 97 677.205 84.8 677.205 71.2C677.205 57.6 680.338 45.4 686.605 34.6C693.005 23.8 701.605 15.4 712.405 9.39999C723.338 3.26666 735.271 0.199989 748.205 0.199989C763.005 0.199989 776.138 3.86666 787.605 11.2C799.205 18.4 807.605 28.6667 812.805 42H785.405ZM941.245 142.4C931.912 142.4 923.512 140.8 916.045 137.6C908.579 134.267 902.712 129.6 898.445 123.6C894.179 117.6 892.045 110.6 892.045 102.6H916.445C916.979 108.6 919.312 113.533 923.445 117.4C927.712 121.267 933.645 123.2 941.245 123.2C949.112 123.2 955.245 121.333 959.645 117.6C964.045 113.733 966.245 108.8 966.245 102.8C966.245 98.1333 964.845 94.3333 962.045 91.4C959.379 88.4667 955.979 86.2 951.845 84.6C947.845 83 942.245 81.2667 935.045 79.4C925.979 77 918.579 74.6 912.845 72.2C907.245 69.6667 902.445 65.8 898.445 60.6C894.445 55.4 892.445 48.4667 892.445 39.8C892.445 31.8 894.445 24.8 898.445 18.8C902.445 12.8 908.045 8.2 915.245 5C922.445 1.79999 930.779 0.199989 940.245 0.199989C953.712 0.199989 964.712 3.59999 973.245 10.4C981.912 17.0667 986.712 26.2667 987.645 38H962.445C962.045 32.9333 959.645 28.6 955.245 25C950.845 21.4 945.045 19.6 937.845 19.6C931.312 19.6 925.979 21.2667 921.845 24.6C917.712 27.9333 915.645 32.7333 915.645 39C915.645 43.2667 916.912 46.8 919.445 49.6C922.112 52.2667 925.445 54.4 929.445 56C933.445 57.6 938.912 59.3333 945.845 61.2C955.045 63.7333 962.512 66.2667 968.245 68.8C974.112 71.3333 979.045 75.2667 983.045 80.6C987.179 85.8 989.245 92.8 989.245 101.6C989.245 108.667 987.312 115.333 983.445 121.6C979.712 127.867 974.179 132.933 966.845 136.8C959.645 140.533 951.112 142.4 941.245 142.4ZM1081.55 142.4C1068.62 142.4 1056.68 139.4 1045.75 133.4C1034.95 127.267 1026.35 118.8 1019.95 108C1013.68 97.0667 1010.55 84.8 1010.55 71.2C1010.55 57.6 1013.68 45.4 1019.95 34.6C1026.35 23.8 1034.95 15.4 1045.75 9.39999C1056.68 3.26666 1068.62 0.199989 1081.55 0.199989C1094.62 0.199989 1106.55 3.26666 1117.35 9.39999C1128.28 15.4 1136.88 23.8 1143.15 34.6C1149.42 45.4 1152.55 57.6 1152.55 71.2C1152.55 84.8 1149.42 97.0667 1143.15 108C1136.88 118.8 1128.28 127.267 1117.35 133.4C1106.55 139.4 1094.62 142.4 1081.55 142.4ZM1081.55 122.6C1090.75 122.6 1098.95 120.533 1106.15 116.4C1113.35 112.133 1118.95 106.133 1122.95 98.4C1127.08 90.5333 1129.15 81.4667 1129.15 71.2C1129.15 60.9333 1127.08 51.9333 1122.95 44.2C1118.95 36.4667 1113.35 30.5333 1106.15 26.4C1098.95 22.2667 1090.75 20.2 1081.55 20.2C1072.35 20.2 1064.15 22.2667 1056.95 26.4C1049.75 30.5333 1044.08 36.4667 1039.95 44.2C1035.95 51.9333 1033.95 60.9333 1033.95 71.2C1033.95 81.4667 1035.95 90.5333 1039.95 98.4C1044.08 106.133 1049.75 112.133 1056.95 116.4C1064.15 120.533 1072.35 122.6 1081.55 122.6ZM1240.38 142.4C1227.45 142.4 1215.52 139.4 1204.58 133.4C1193.78 127.267 1185.18 118.8 1178.78 108C1172.52 97.0667 1169.38 84.8 1169.38 71.2C1169.38 57.6 1172.52 45.4 1178.78 34.6C1185.18 23.8 1193.78 15.4 1204.58 9.39999C1215.52 3.26666 1227.45 0.199989 1240.38 0.199989C1253.45 0.199989 1265.38 3.26666 1276.18 9.39999C1287.12 15.4 1295.72 23.8 1301.98 34.6C1308.25 45.4 1311.38 57.6 1311.38 71.2C1311.38 84.8 1308.25 97.0667 1301.98 108C1295.72 118.8 1287.12 127.267 1276.18 133.4C1265.38 139.4 1253.45 142.4 1240.38 142.4ZM1240.38 122.6C1249.58 122.6 1257.78 120.533 1264.98 116.4C1272.18 112.133 1277.78 106.133 1281.78 98.4C1285.92 90.5333 1287.98 81.4667 1287.98 71.2C1287.98 60.9333 1285.92 51.9333 1281.78 44.2C1277.78 36.4667 1272.18 30.5333 1264.98 26.4C1257.78 22.2667 1249.58 20.2 1240.38 20.2C1231.18 20.2 1222.98 22.2667 1215.78 26.4C1208.58 30.5333 1202.92 36.4667 1198.78 44.2C1194.78 51.9333 1192.78 60.9333 1192.78 71.2C1192.78 81.4667 1194.78 90.5333 1198.78 98.4C1202.92 106.133 1208.58 112.133 1215.78 116.4C1222.98 120.533 1231.18 122.6 1240.38 122.6ZM1450.02 141H1427.22L1358.62 37.2V141H1335.82V1.79999H1358.62L1427.22 105.4V1.79999H1450.02V141Z" fill="white" fill-opacity="0.07"/>
</svg>
